<svg width="256" height="256" viewBox="0 0 256 256" fill="none" xmlns="http://www.w3.org/2000/svg">
  <rect x="16" y="16" width="224" height="224" rx="48" fill="#F8FAFC" stroke="#E5E7EB" stroke-width="3"/>
  <g transform="translate(36 26) scale(0.5)">
    <path d="M 175.0,27.5 L 202.0,28.5 L 223.0,36.5 L 242.5,52.0 L 260.0,80.5 L 282.0,79.5 L 300.0,84.5 L 317.0,94.5 L 332.5,112.0 L 339.5,127.0 L 342.5,150.0 L 338.5,171.0 L 326.5,193.0 L 339.5,216.0 L 342.5,230.0 L 342.5,246.0 L 337.5,265.0 L 326.5,283.0 L 316.0,293.5 L 299.0,303.5 L 278.0,308.5 L 259.0,307.5 L 248.5,326.0 L 234.0,341.5 L 214.0,353.5 L 200.0,357.5 L 178.0,358.5 L 157.0,353.5 L 142.0,345.5 L 126.5,331.0 L 116.5,314.0 L 135.0,307.5 L 155.0,296.5 L 179.0,278.5 L 196.5,261.0 L 224.5,223.0 L 242.0,184.5 L 219.5,214.0 L 191.0,241.5 L 169.0,257.5 L 138.0,273.5 L 101.0,283.5 L 68.0,283.5 L 44.0,275.5 L 33.5,264.0 L 28.5,248.0 L 28.5,228.0 L 32.5,213.0 L 44.5,193.0 L 32.5,173.0 L 27.5,149.0 L 29.5,132.0 L 37.5,113.0 L 50.0,97.5 L 67.0,85.5 L 91.0,78.5 L 112.0,80.5 L 123.5,59.0 L 137.0,44.5 L 159.0,31.5 L 174.5,28.0 Z M 265.0,112.5 L 259.5,126.0 L 251.0,136.5 L 241.0,142.5 L 231.5,145.0 L 250.0,153.5 L 257.5,161.0 L 265.0,177.5 L 273.5,159.0 L 285.0,149.5 L 296.5,145.0 L 284.0,140.5 L 272.5,130.0 L 265.5,113.0 Z" fill="#000" fill-rule="evenodd" clip-rule="evenodd"/>
  </g>
</svg>
